<?xml version="1.0" standalone="no"?>
<svg xmlns="http://www.w3.org/2000/svg" viewBox="0 0 171.433 29" width="171.433" height="29"><g fill="#51be95" color="#51be95" transform="translate(0, 0) scale(0.659091)"><svg width="44.0" height="44.0" x="0.0" y="0.0" viewBox="0 0 44 44"><path fill="currentColor" fill-rule="nonzero" d="M23.77 32.44V14.72h19.49v28.35H.74V32.44h23.03zM.74.55h42.52v10.63H20.23V28.9H.74V.55z"></path></svg></g><line x1="41" y1="1" x2="41" y2="28" stroke="#0466b2" stroke-linecap="round"></line><path fill="#0466b2" fill-rule="nonzero" d="M0 15.46L0 15.46L0 0.29Q1.94 0 3.91 0L3.91 0Q6.67 0 7.99 1.32L7.99 1.32Q9.02 2.38 9.02 4.10L9.02 4.10Q9.02 5.30 8.29 6.19Q7.56 7.08 6.36 7.37L6.36 7.37L6.36 7.39Q7.82 7.63 8.66 8.72Q9.50 9.82 9.50 11.47L9.50 11.47Q9.50 13.66 7.80 14.78L7.80 14.78Q6.34 15.77 3.91 15.77L3.91 15.77Q2.14 15.77 0 15.46ZM1.78 1.58L1.78 1.58L1.78 6.70L4.27 6.70Q5.57 6.70 6.37 6.04Q7.18 5.38 7.18 4.27L7.18 4.27Q7.18 1.42 3.86 1.42L3.86 1.42Q2.59 1.42 1.78 1.58ZM4.27 8.18L1.78 8.18L1.78 14.18Q2.78 14.33 4.13 14.33L4.13 14.33Q7.61 14.33 7.61 11.45L7.61 11.45Q7.61 9.91 6.73 9.05Q5.86 8.18 4.27 8.18L4.27 8.18ZM20.57 8.86L20.57 15.48L19.37 15.48L19.13 14.30Q17.66 15.77 15.48 15.77L15.48 15.77Q13.82 15.77 12.84 14.84Q11.86 13.92 11.86 12.38L11.86 12.38Q11.86 8.64 17.33 8.64L17.33 8.64L18.98 8.64L18.98 8.50Q18.98 5.64 16.20 5.64L16.20 5.64Q14.62 5.64 13.15 6.70L13.15 6.70L12.62 5.81Q14.28 4.30 16.66 4.30L16.66 4.30Q18.55 4.30 19.56 5.47Q20.57 6.65 20.57 8.86L20.57 8.86ZM18.98 12.77L18.98 9.82L17.52 9.82Q13.58 9.82 13.58 12.24L13.58 12.24Q13.58 13.27 14.20 13.86Q14.81 14.45 15.91 14.45L15.91 14.45Q16.87 14.45 17.76 13.97Q18.65 13.49 18.98 12.77L18.98 12.77ZM33.43 8.98L33.43 15.48L31.85 15.48L31.85 9.10Q31.85 5.69 28.87 5.69L28.87 5.69Q28.01 5.69 27.17 6.10Q26.33 6.50 25.87 7.13L25.87 7.13L25.87 15.48L24.26 15.48L24.26 4.58L25.61 4.58L25.75 5.74L25.82 5.74Q27.24 4.30 29.38 4.30L29.38 4.30Q33.43 4.30 33.43 8.98L33.43 8.98ZM45.29 5.45L45.29 5.45L44.76 6.36Q43.54 5.59 42.10 5.59L42.10 5.59Q40.13 5.59 39.02 7.03L39.02 7.03Q38.06 8.28 38.06 10.15L38.06 10.15Q38.06 12.14 39.29 13.34L39.29 13.34Q40.42 14.45 42.24 14.45L42.24 14.45Q43.78 14.45 44.95 13.56L44.95 13.56L45.48 14.52Q44.14 15.77 41.88 15.77L41.88 15.77Q39.24 15.77 37.68 13.99L37.68 13.99Q36.34 12.43 36.34 10.08L36.34 10.08Q36.34 7.44 38.09 5.76L38.09 5.76Q39.60 4.30 41.74 4.30L41.74 4.30Q43.82 4.30 45.29 5.45ZM58.13 10.06L58.13 10.06Q58.13 12.65 56.50 14.30L56.50 14.30Q55.03 15.77 52.90 15.77L52.90 15.77Q50.42 15.77 48.91 13.90L48.91 13.90Q47.64 12.31 47.64 10.06L47.64 10.06Q47.64 7.42 49.22 5.78L49.22 5.78Q50.66 4.30 52.90 4.30L52.90 4.30Q55.42 4.30 56.90 6.19L56.90 6.19Q58.13 7.78 58.13 10.06ZM49.37 10.06L49.37 10.06Q49.37 12.14 50.45 13.37L50.45 13.37Q51.41 14.45 52.87 14.45L52.87 14.45Q54.46 14.45 55.43 13.24Q56.40 12.02 56.40 10.06L56.40 10.06Q56.40 7.99 55.34 6.74L55.34 6.74Q54.38 5.59 52.90 5.59L52.90 5.59Q51.31 5.59 50.34 6.83Q49.37 8.06 49.37 10.06ZM68.95 15.48L67.20 15.48L67.20 0.29L68.95 0.29L68.95 6.98L74.57 0.29L76.70 0.29L70.66 7.44L76.94 15.48L74.66 15.48L68.95 7.97L68.95 7.94L68.95 15.48ZM86.95 8.86L86.95 15.48L85.75 15.48L85.51 14.30Q84.05 15.77 81.86 15.77L81.86 15.77Q80.21 15.77 79.22 14.84Q78.24 13.92 78.24 12.38L78.24 12.38Q78.24 8.64 83.71 8.64L83.71 8.64L85.37 8.64L85.37 8.50Q85.37 5.64 82.58 5.64L82.58 5.64Q81.00 5.64 79.54 6.70L79.54 6.70L79.01 5.81Q80.66 4.30 83.04 4.30L83.04 4.30Q84.94 4.30 85.94 5.47Q86.95 6.65 86.95 8.86L86.95 8.86ZM85.37 12.77L85.37 9.82L83.90 9.82Q79.97 9.82 79.97 12.24L79.97 12.24Q79.97 13.27 80.58 13.86Q81.19 14.45 82.30 14.45L82.30 14.45Q83.26 14.45 84.14 13.97Q85.03 13.49 85.37 12.77L85.37 12.77ZM97.75 5.52L97.75 5.52L96.43 6.43Q95.62 5.71 94.68 5.71L94.68 5.71Q93.31 5.71 92.26 7.13L92.26 7.13L92.26 15.48L90.65 15.48L90.65 4.58L92.02 4.58L92.16 5.74L92.21 5.74Q93.62 4.30 95.11 4.30L95.11 4.30Q96.86 4.30 97.75 5.52ZM107.57 8.86L107.57 15.48L106.37 15.48L106.13 14.30Q104.66 15.77 102.48 15.77L102.48 15.77Q100.82 15.77 99.84 14.84Q98.86 13.92 98.86 12.38L98.86 12.38Q98.86 8.64 104.33 8.64L104.33 8.64L105.98 8.64L105.98 8.50Q105.98 5.64 103.20 5.64L103.20 5.64Q101.62 5.64 100.15 6.70L100.15 6.70L99.62 5.81Q101.28 4.30 103.66 4.30L103.66 4.30Q105.55 4.30 106.56 5.47Q107.57 6.65 107.57 8.86L107.57 8.86ZM105.98 12.77L105.98 9.82L104.52 9.82Q100.58 9.82 100.58 12.24L100.58 12.24Q100.58 13.27 101.20 13.86Q101.81 14.45 102.91 14.45L102.91 14.45Q103.87 14.45 104.76 13.97Q105.65 13.49 105.98 12.77L105.98 12.77ZM120.43 8.98L120.43 15.48L118.85 15.48L118.85 9.10Q118.85 5.69 115.87 5.69L115.87 5.69Q115.01 5.69 114.17 6.10Q113.33 6.50 112.87 7.13L112.87 7.13L112.87 15.48L111.26 15.48L111.26 4.58L112.61 4.58L112.75 5.74L112.82 5.74Q114.24 4.30 116.38 4.30L116.38 4.30Q120.43 4.30 120.43 8.98L120.43 8.98Z" transform="translate(51, 6.616)"></path></svg>